/vscmnt/brussel_pixiu_data/_data_brussel/112/vsc11236/PredSimResults/SUBJ06opt3D/trackIG/worker_06.mot
version=1
nRows=8
nColumns=50
inDegrees=yes
endheader
                time	         pelvis_tilt	         pelvis_list	     pelvis_rotation	           pelvis_tx	           pelvis_ty	           pelvis_tz	       hip_flexion_r	     hip_adduction_r	      hip_rotation_r	        knee_angle_r	       ankle_angle_r	         mtp_angle_r	       hip_flexion_l	     hip_adduction_l	      hip_rotation_l	        knee_angle_l	       ankle_angle_l	         mtp_angle_l	    lumbar_extension	      lumbar_bending	     lumbar_rotation	 ercspn_r/activation	 intobl_r/activation	 extobl_r/activation	    abd_r/activation	    add_r/activation	hamstrings_r/activation	bifemsh_r/activation	glut_max_r/activation	iliopsoas_r/activation	rect_fem_r/activation	  vasti_r/activation	gastroc_r/activation	 soleus_r/activation	tib_ant_r/activation	 ercspn_l/activation	 intobl_l/activation	 extobl_l/activation	    abd_l/activation	    add_l/activation	hamstrings_l/activation	bifemsh_l/activation	glut_max_l/activation	iliopsoas_l/activation	rect_fem_l/activation	  vasti_l/activation	gastroc_l/activation	 soleus_l/activation	tib_ant_l/activation	
          1.23864429	         -5.01209511	         -1.55046124	          5.59964156	          1.36250872	          0.93371598	         -0.01133314	         31.26442366	         -0.84588990	         -9.16048740	        -10.00522000	          0.01987385	          0.22022975	        -10.77112070	         -1.77418976	         -8.00479812	        -11.42929672	          8.31488384	         32.91895791	         -5.77903557	          0.19511194	         -7.91393024	          0.18759412	          0.18783499	          0.00999999	          0.00999999	          0.31755415	          0.04840466	          0.03460117	          0.01845717	          0.12198461	          0.01247156	          0.02316979	          0.00999999	          0.00999999	          0.50660159	          0.12962775	          0.00999999	          0.00999999	          0.07849659	          0.00999999	          0.00999999	          0.19703183	          0.01710411	          0.42408346	          0.02118477	          0.00999999	          0.23073576	          0.35367638	          0.02118476	
          1.25103074	         -5.09840433	         -1.49699152	          5.60283876	          1.37918893	          0.93199912	         -0.01057800	         31.20919637	         -0.74749309	         -9.33602175	        -11.21985370	         -0.34939012	          0.22704498	        -11.21143752	         -1.91503991	         -8.43901800	        -12.26617753	          7.30061993	         34.74846103	         -5.42926481	          0.53805712	         -8.38675605	          0.16958236	          0.15569351	          0.00999999	          0.00999999	          0.37363119	          0.05201838	          0.02868037	          0.04314662	          0.10111115	          0.01033748	          0.04844810	          0.00999999	          0.01455498	          0.51708279	          0.15276551	          0.00999999	          0.00999999	          0.06506461	          0.00999999	          0.00999999	          0.16331664	          0.01455498	          0.41193503	          0.01755972	          0.00999999	          0.19525252	          0.33053061	          0.01755972	
          1.26341718	         -5.16219262	         -1.48574937	          5.58256839	          1.39633327	          0.93046307	         -0.00978645	         30.90762917	         -0.67508005	         -9.30633286	        -12.41942039	         -0.62200324	          0.19461899	        -11.53638591	         -2.13284627	         -8.86968326	        -13.38622461	          6.16840690	         36.59637169	         -5.04815386	          0.94141805	         -8.81885956	          0.14056419	          0.12905193	          0.00999999	          0.02991759	          0.30969710	          0.05983766	          0.02377271	          0.03576356	          0.08380946	          0.00999999	          0.06369559	          0.01206440	          0.01206440	          0.56794307	          0.13814993	          0.00999999	          0.00999999	          0.05393104	          0.00999999	          0.00999999	          0.17382730	          0.01206440	          0.41986085	          0.01455498	          0.00999999	          0.16184179	          0.30328285	          0.01455498	
          1.27580362	         -5.20796422	         -1.50668953	          5.52573752	          1.41368514	          0.92920540	         -0.00886621	         30.43772201	         -0.57495430	         -9.39973732	        -13.38295894	         -0.95095733	          0.18222177	        -11.64321829	         -2.43143596	         -9.30726995	        -14.93769693	          4.90179147	         38.45321502	         -4.66749637	          1.38188786	         -9.19399087	          0.14512461	          0.10696915	          0.00999999	          0.07731752	          0.25670313	          0.06826087	          0.01970484	          0.06613926	          0.06946837	          0.00999999	          0.09668632	          0.00999999	          0.00999999	          0.62349332	          0.15208886	          0.00999999	          0.00999999	          0.04470261	          0.00999999	          0.00999999	          0.18241660	          0.00999999	          0.37382552	          0.01206440	          0.00999999	          0.13414815	          0.26496561	          0.01206440	
          1.28819007	         -5.23798313	         -1.55204122	          5.43193307	          1.43097432	          0.92839972	         -0.00781818	         29.91157410	         -0.45150936	         -9.59116633	        -14.27427680	         -1.17863208	          0.14404687	        -11.44529900	         -2.81487156	         -9.75520621	        -17.02683620	          3.44274850	         40.27881630	         -4.31646891	          1.84926147	         -9.50520757	          0.14032386	          0.08866507	          0.00999999	          0.12884341	          0.21277724	          0.06870319	          0.01633303	          0.12071179	          0.05758125	          0.00999999	          0.14675131	          0.00999999	          0.00999999	          0.64457247	          0.19657363	          0.00999999	          0.00999999	          0.03705330	          0.00999999	          0.00999999	          0.15120230	          0.00999999	          0.30985818	          0.00999999	          0.00999999	          0.11119332	          0.21962589	          0.00999999	
          1.30057651	         -5.25505996	         -1.63068372	          5.31285504	          1.44796647	          0.92827955	         -0.00665726	         29.38948589	         -0.28345336	         -9.76316537	        -15.24735216	         -0.86080107	          0.13890442	        -10.88570657	         -3.30412689	        -10.20522219	        -19.69399933	          1.72997340	         41.91869049	         -4.01238723	          2.34872257	         -9.75950598	          0.13047155	          0.07349310	          0.00999999	          0.17364575	          0.17636776	          0.06893950	          0.01353820	          0.13831027	          0.04772821	          0.00999999	          0.21983184	          0.00999999	          0.00999999	          0.57895895	          0.24369016	          0.00999999	          0.00999999	          0.03071290	          0.06354779	          0.08751287	          0.12682105	          0.00999999	          0.25683664	          0.00999999	          0.00999999	          0.09216642	          0.18204449	          0.00999999	
          1.31296295	         -5.26357460	         -1.73294985	          5.18012257	          1.46449422	          0.92904604	         -0.00541035	         28.82233941	         -0.05456976	         -9.80667976	        -16.19770090	          0.05849287	          0.28790368	         -9.93775638	         -3.89574942	        -10.66295307	        -22.92969873	         -0.23512571	         43.02134817	         -3.76412087	          2.86355076	         -9.96775384	          0.12048644	          0.06091729	          0.00999999	          0.19575090	          0.17037273	          0.07000861	          0.01122160	          0.11550589	          0.03956117	          0.00999999	          0.25654971	          0.00999999	          0.00999999	          0.48786052	          0.25533067	          0.00999999	          0.00999999	          0.02545745	          0.16537262	          0.11775465	          0.11400473	          0.00999999	          0.21288790	          0.00999999	          0.00999999	          0.07639531	          0.15089385	          0.00999999	
          1.32534939	         -5.26745266	         -1.81648444	          5.03134983	          1.48048489	          0.93074229	         -0.00411681	         28.12521182	          0.19894735	         -9.75623410	        -16.88211834	          1.10723439	          0.61084170	         -8.60803279	         -4.55131326	        -11.14539547	        -26.71497309	         -2.30059619	         43.01635688	         -3.57694826	          3.34557718	        -10.12760315	          0.11939699	          0.05049340	          0.00999999	          0.19782686	          0.17003674	          0.07428377	          0.01206440	          0.09574104	          0.03279164	          0.00999999	          0.25971491	          0.00999999	          0.00999999	          0.40729809	          0.24917616	          0.00999999	          0.00999999	          0.02110128	          0.22403894	          0.12599687	          0.09449675	          0.00999999	          0.17645948	          0.00999999	          0.00999999	          0.06332289	          0.12507358	          0.00999999	
